<svg width="240" height="240" viewBox="0 0 240 240" fill="none" xmlns="http://www.w3.org/2000/svg">
<path d="M52.5 62C52.5 56.201 57.201 51.5 63 51.5H179C184.799 51.5 189.5 56.201 189.5 62V68.5H52.5V62Z" stroke="white" stroke-width="3"/>
<path d="M64 63C65.6569 63 67 61.6569 67 60C67 58.3431 65.6569 57 64 57C62.3431 57 61 58.3431 61 60C61 61.6569 62.3431 63 64 63Z" fill="white"/>
<path d="M74 63C75.6569 63 77 61.6569 77 60C77 58.3431 75.6569 57 74 57C72.3431 57 71 58.3431 71 60C71 61.6569 72.3431 63 74 63Z" fill="white"/>
<path d="M84 63C85.6569 63 87 61.6569 87 60C87 58.3431 85.6569 57 84 57C82.3431 57 81 58.3431 81 60C81 61.6569 82.3431 63 84 63Z" fill="white"/>
<path d="M179 83.5H63C57.201 83.5 52.5 88.201 52.5 94V134C52.5 139.799 57.201 144.5 63 144.5H179C184.799 144.5 189.5 139.799 189.5 134V94C189.5 88.201 184.799 83.5 179 83.5Z" stroke="white" stroke-width="3"/>
<path d="M103 159.5H63C57.201 159.5 52.5 164.201 52.5 170V178C52.5 183.799 57.201 188.5 63 188.5H103C108.799 188.5 113.5 183.799 113.5 178V170C113.5 164.201 108.799 159.5 103 159.5Z" stroke="white" stroke-width="3"/>
<path fill-rule="evenodd" clip-rule="evenodd" d="M120.495 94.0119L121.508 94.012C122.059 94.0028 122.58 94.2674 122.897 94.7186L128.197 102.374C129.069 103.692 129.429 105.283 129.21 106.849L128.515 112.631C130.542 113.589 131.683 115.779 131.306 117.989L129.917 126.021C129.835 126.467 129.411 126.766 128.963 126.692L128.138 126.551C126.832 126.321 125.672 125.58 124.912 124.494C124.152 123.407 123.855 122.063 124.087 120.757L124.393 118.967H117.539L117.846 120.757C118.077 122.062 117.781 123.407 117.021 124.493C116.261 125.58 115.1 126.32 113.794 126.551L112.97 126.692C112.522 126.766 112.098 126.467 112.016 126.021L110.626 117.989C110.249 115.779 111.39 113.588 113.417 112.631L112.687 106.813C112.507 105.246 112.905 103.668 113.806 102.373L119.105 94.7185C119.423 94.2674 119.943 94.0028 120.495 94.0119ZM115.608 106.507L116.751 116.081H125.253L126.396 106.483C126.478 105.628 126.262 104.771 125.783 104.057L124.311 101.926H117.693L116.22 104.057C115.738 104.778 115.521 105.644 115.608 106.507ZM118.505 108.132C118.553 109.476 119.656 110.542 121.002 110.542C122.347 110.542 123.451 109.476 123.498 108.132C123.451 106.787 122.347 105.722 121.002 105.722C119.656 105.722 118.553 106.787 118.505 108.132ZM119.585 124.934C119.742 124.777 119.955 124.689 120.177 124.69H121.826C122.048 124.69 122.261 124.777 122.418 124.934C122.575 125.091 122.663 125.305 122.662 125.527V133.205C122.663 133.427 122.575 133.64 122.418 133.797C122.261 133.954 122.048 134.042 121.826 134.041H120.177C119.955 134.042 119.742 133.954 119.585 133.797C119.428 133.64 119.34 133.427 119.341 133.205V125.527C119.34 125.304 119.428 125.091 119.585 124.934Z" fill="white"/>
<path d="M129 166H189" stroke="white" stroke-width="3" stroke-linecap="round"/>
<path d="M129 180H176" stroke="white" stroke-width="3" stroke-linecap="round"/>
<path d="M53 99.1072C57.5743 96.1143 68.2476 99.1072 65.7064 109.083C70.7889 108.585 76.2781 112.076 73.8384 120.057C78.921 118.561 86.2399 122.352 82.987 131.53C89.0861 129.036 97.7264 134.523 94.1686 144" stroke="white" stroke-width="3"/>
<path d="M189 99.1072C184.426 96.1143 173.752 99.1072 176.294 109.083C171.211 108.585 165.722 112.076 168.162 120.057C163.079 118.561 155.76 122.352 159.013 131.53C152.914 129.036 144.274 134.523 147.831 144" stroke="white" stroke-width="3"/>
</svg>
