<svg width="240" height="240" viewBox="0 0 240 240" fill="none" xmlns="http://www.w3.org/2000/svg">
<path fill-rule="evenodd" clip-rule="evenodd" d="M191.37 156.947L191.043 156.363C190.622 155.658 190.028 155.072 189.317 154.66L173.66 145.63C172.951 145.219 172.146 145.002 171.327 145H170.65C169.83 145.002 169.026 145.219 168.317 145.63L152.66 154.683C151.953 155.092 151.366 155.68 150.957 156.387L150.63 156.97C150.219 157.679 150.002 158.484 150 159.303V177.387C150.002 178.206 150.219 179.011 150.63 179.72L150.957 180.303C151.376 181.002 151.961 181.587 152.66 182.007L168.34 191.037C169.045 191.456 169.853 191.674 170.673 191.667H171.327C172.146 191.665 172.951 191.448 173.66 191.037L189.317 181.983C190.031 181.584 190.62 180.994 191.02 180.28L191.37 179.697C191.776 178.986 191.993 178.182 192 177.363V159.28C191.998 158.46 191.781 157.656 191.37 156.947ZM170.65 149.667H171.327L185 157.553L171 165.627L157 157.553L170.65 149.667ZM173.333 185.833L186.983 177.947L187.333 177.363V161.59L173.333 169.687V185.833Z" fill="white"/>
<path fill-rule="evenodd" clip-rule="evenodd" d="M91 76.5H179C184.799 76.5 189.5 81.201 189.5 87V109.5C189.5 115.299 184.799 120 179 120H64C56.5442 120 50.5 126.044 50.5 133.5V156C50.5 163.456 56.5442 169.5 64 169.5H151V166.5H64C58.201 166.5 53.5 161.799 53.5 156V133.5C53.5 127.701 58.201 123 64 123H179C186.456 123 192.5 116.956 192.5 109.5V87C192.5 79.5442 186.456 73.5 179 73.5H91V76.5Z" fill="white"/>
<path fill-rule="evenodd" clip-rule="evenodd" d="M139 75C139 78.3137 136.314 81 133 81C129.686 81 127 78.3137 127 75C127 71.6863 129.686 69 133 69C136.314 69 139 71.6863 139 75Z" fill="white"/>
<path fill-rule="evenodd" clip-rule="evenodd" d="M197 98C197 101.314 194.314 104 191 104C187.686 104 185 101.314 185 98C185 94.6863 187.686 92 191 92C194.314 92 197 94.6863 197 98Z" fill="white"/>
<path fill-rule="evenodd" clip-rule="evenodd" d="M154 121C154 124.314 151.314 127 148 127C144.686 127 142 124.314 142 121C142 117.686 144.686 115 148 115C151.314 115 154 117.686 154 121Z" fill="white"/>
<path fill-rule="evenodd" clip-rule="evenodd" d="M99 121C99 124.314 96.3137 127 93 127C89.6863 127 87 124.314 87 121C87 117.686 89.6863 115 93 115C96.3137 115 99 117.686 99 121Z" fill="white"/>
<path fill-rule="evenodd" clip-rule="evenodd" d="M58 145C58 148.314 55.3137 151 52 151C48.6863 151 46 148.314 46 145C46 141.686 48.6863 139 52 139C55.3137 139 58 141.686 58 145Z" fill="white"/>
<path fill-rule="evenodd" clip-rule="evenodd" d="M126 168C126 171.314 123.314 174 120 174C116.686 174 114 171.314 114 168C114 164.686 116.686 162 120 162C123.314 162 126 164.686 126 168Z" fill="white"/>
<path d="M68.5 96C80.3741 96 90 86.3741 90 74.5C90 62.6259 80.3741 53 68.5 53C56.6259 53 47 62.6259 47 74.5C47 86.3741 56.6259 96 68.5 96Z" stroke="white" stroke-width="2"/>
<path d="M64.25 81H71.75V82.5H64.25V81Z" fill="white"/>
<path d="M65.75 84H70.25V85.5H65.75V84Z" fill="white"/>
<path d="M67.9996 64.5C66.0105 64.5 64.1028 65.2902 62.6963 66.6967C61.2898 68.1032 60.4996 70.0109 60.4996 72C60.4489 73.09 60.6577 74.1765 61.1088 75.17C61.56 76.1636 62.2406 77.0358 63.0946 77.715C63.8446 78.4125 64.2496 78.81 64.2496 79.5H65.7496C65.7496 78.12 64.9171 77.3475 64.1071 76.605C63.4061 76.0682 62.8475 75.3677 62.4801 74.5649C62.1126 73.7621 61.9477 72.8814 61.9996 72C61.9996 70.4087 62.6318 68.8826 63.757 67.7574C64.8822 66.6321 66.4083 66 67.9996 66C69.5909 66 71.117 66.6321 72.2423 67.7574C73.3675 68.8826 73.9996 70.4087 73.9996 72C74.0507 72.882 73.8846 73.7631 73.5158 74.566C73.1471 75.3689 72.587 76.069 71.8846 76.605C71.0821 77.355 70.2496 78.105 70.2496 79.5H71.7496C71.7496 78.81 72.1471 78.4125 72.9046 77.7075C73.7581 77.0295 74.4384 76.1585 74.8895 75.1663C75.3406 74.174 75.5498 73.0888 75.4996 72C75.4996 71.0151 75.3056 70.0398 74.9287 69.1299C74.5518 68.2199 73.9994 67.3931 73.3029 66.6967C72.6065 66.0003 71.7797 65.4478 70.8698 65.0709C69.9598 64.694 68.9845 64.5 67.9996 64.5Z" fill="white"/>
</svg>
