<svg width="240" height="240" viewBox="0 0 240 240" fill="none" xmlns="http://www.w3.org/2000/svg">
<path d="M181 51.5H61C56.3056 51.5 52.5 55.3056 52.5 60C52.5 64.6944 56.3056 68.5 61 68.5H181C185.694 68.5 189.5 64.6944 189.5 60C189.5 55.3056 185.694 51.5 181 51.5Z" stroke="white" stroke-width="3"/>
<path d="M179 159.5H139C133.201 159.5 128.5 164.201 128.5 170V178C128.5 183.799 133.201 188.5 139 188.5H179C184.799 188.5 189.5 183.799 189.5 178V170C189.5 164.201 184.799 159.5 179 159.5Z" stroke="white" stroke-width="3"/>
<path d="M103 83.5H63C57.201 83.5 52.5 88.201 52.5 94V134C52.5 139.799 57.201 144.5 63 144.5H103C108.799 144.5 113.5 139.799 113.5 134V94C113.5 88.201 108.799 83.5 103 83.5Z" stroke="white" stroke-width="3"/>
<path d="M76.3409 134C79.84 134 82.6799 131.163 82.6799 127.667V121.333H76.3409C72.8418 121.333 70.002 124.171 70.002 127.667C70.002 131.163 72.8418 134 76.3409 134Z" stroke="white" stroke-width="3"/>
<path d="M70.002 115C70.002 111.504 72.8418 108.667 76.3409 108.667H82.6799V121.333H76.3409C72.8418 121.333 70.002 118.496 70.002 115Z" stroke="white" stroke-width="3"/>
<path d="M70.0039 102.333C70.0039 98.8373 72.8438 96 76.3429 96H82.6818V108.667H76.3429C72.8438 108.667 70.0039 105.829 70.0039 102.333Z" stroke="white" stroke-width="3"/>
<path d="M82.6816 96H89.0206C92.5197 96 95.3595 98.8373 95.3595 102.333C95.3595 105.829 92.5197 108.667 89.0206 108.667H82.6816V96Z" stroke="white" stroke-width="3"/>
<path d="M95.3595 115C95.3595 118.496 92.5197 121.333 89.0206 121.333C85.5215 121.333 82.6816 118.496 82.6816 115C82.6816 111.504 85.5215 108.667 89.0206 108.667C92.5197 108.667 95.3595 111.504 95.3595 115Z" stroke="white" stroke-width="3"/>
<path d="M129 93H189" stroke="white" stroke-width="3" stroke-linecap="round"/>
<path d="M129 107H176" stroke="white" stroke-width="3" stroke-linecap="round"/>
<path d="M129 121H189" stroke="white" stroke-width="3" stroke-linecap="round"/>
<path d="M129 135H176" stroke="white" stroke-width="3" stroke-linecap="round"/>
<path d="M59 180.5C62.5899 180.5 65.5 177.59 65.5 174C65.5 170.41 62.5899 167.5 59 167.5C55.4101 167.5 52.5 170.41 52.5 174C52.5 177.59 55.4101 180.5 59 180.5Z" stroke="white" stroke-width="3"/>
<path d="M83 180.5C86.5899 180.5 89.5 177.59 89.5 174C89.5 170.41 86.5899 167.5 83 167.5C79.4101 167.5 76.5 170.41 76.5 174C76.5 177.59 79.4101 180.5 83 180.5Z" stroke="white" stroke-width="3"/>
<path d="M107 180.5C110.59 180.5 113.5 177.59 113.5 174C113.5 170.41 110.59 167.5 107 167.5C103.41 167.5 100.5 170.41 100.5 174C100.5 177.59 103.41 180.5 107 180.5Z" stroke="white" stroke-width="3"/>
</svg>
